<?xml version="1.0" standalone="no"?>
<!DOCTYPE svg PUBLIC "-//W3C//DTD SVG 20010904//EN"
 "http://www.w3.org/TR/2001/REC-SVG-20010904/DTD/svg10.dtd">
<svg version="1.0" xmlns="http://www.w3.org/2000/svg"
 width="700.000000pt" height="700.000000pt" viewBox="0 0 700.000000 700.000000"
 preserveAspectRatio="xMidYMid meet">
<metadata>
Created by potrace 1.14, written by Peter Selinger 2001-2017
</metadata>
<g transform="translate(0.000000,700.000000) scale(0.100000,-0.100000)"
fill="#000000" stroke="none">
<path d="M3438 6716 c-60 -22 -85 -42 -115 -93 l-28 -48 0 -695 c0 -663 1
-697 19 -730 80 -147 280 -154 363 -12 l28 47 1 688 1 688 -22 47 c-46 95
-154 143 -247 108z"/>
<path d="M1890 5885 c-46 -21 -78 -51 -101 -97 -41 -80 -27 -149 54 -276 26
-40 47 -75 47 -78 0 -2 5 -10 10 -17 6 -7 78 -121 160 -254 82 -133 157 -251
167 -263 34 -40 93 -64 159 -64 50 0 68 5 105 30 77 52 113 152 85 235 -11 32
-395 661 -438 718 -53 70 -170 101 -248 66z"/>
<path d="M4935 5879 c-45 -24 -77 -57 -106 -109 -11 -19 -27 -47 -37 -61 -9
-15 -32 -51 -50 -80 -18 -30 -37 -61 -42 -69 -58 -90 -254 -409 -267 -433 -18
-36 -27 -133 -12 -142 5 -4 9 -15 9 -26 0 -28 78 -102 121 -115 60 -19 130
-10 177 21 44 29 64 56 189 260 44 72 126 204 183 295 56 91 108 177 116 191
30 59 18 158 -27 212 -61 74 -174 99 -254 56z"/>
<path d="M413 5402 c-12 -4 -42 -24 -67 -44 -99 -83 -96 -229 8 -312 36 -28
933 -560 1011 -599 38 -19 119 -18 165 1 137 57 165 258 48 345 -18 14 -211
129 -428 257 -646 381 -595 354 -659 356 -31 2 -66 0 -78 -4z"/>
<path d="M6450 5399 c-20 -8 -149 -82 -260 -149 -15 -9 -83 -49 -335 -197 -66
-39 -136 -80 -155 -91 -101 -57 -249 -147 -278 -169 -72 -54 -96 -167 -53
-251 11 -22 25 -43 30 -46 5 -4 7 -20 4 -37 l-5 -31 109 3 108 4 104 60 c133
76 118 68 550 322 201 118 380 229 398 246 58 54 76 164 39 235 -46 87 -169
136 -256 101z"/>
<path d="M3388 4755 c-2 -1 -28 -5 -58 -8 -73 -8 -109 -15 -205 -38 -44 -11
-89 -21 -100 -24 -52 -12 -242 -92 -345 -146 -92 -49 -271 -159 -325 -201 -86
-67 -249 -200 -278 -227 -125 -116 -278 -275 -357 -371 -25 -30 -53 -64 -63
-75 -10 -11 -56 -70 -101 -130 -46 -61 -106 -135 -134 -166 l-50 -55 61 -70
c122 -137 290 -299 417 -399 41 -33 77 -63 80 -66 15 -18 240 -170 330 -223
690 -411 1331 -485 2002 -235 390 146 830 437 1153 763 88 89 205 216 209 228
0 3 -24 34 -56 69 -31 35 -87 105 -124 154 -220 294 -484 563 -744 760 -117
88 -216 155 -229 155 -5 0 -11 4 -13 9 -5 13 -241 135 -331 170 -206 82 -395
121 -599 126 -75 1 -138 1 -140 0z m-833 -1081 c-23 -86 -30 -146 -29 -264 1
-129 23 -236 71 -349 37 -88 137 -251 154 -251 5 0 9 -5 9 -11 0 -19 -400 204
-430 240 -3 3 -27 22 -55 41 -27 19 -54 38 -60 42 -84 67 -158 127 -190 156
l-40 37 46 41 c66 58 172 142 259 204 89 64 273 180 277 176 2 -2 -4 -30 -12
-62z m1945 25 c116 -66 352 -239 460 -337 l55 -50 -25 -22 c-14 -12 -45 -39
-70 -59 -25 -20 -47 -39 -50 -42 -3 -3 -42 -33 -86 -67 -124 -93 -303 -207
-432 -275 l-117 -61 26 34 c14 19 37 51 51 70 35 47 101 182 121 250 56 184
56 381 0 580 -6 24 -6 24 18 9 13 -9 35 -22 49 -30z"/>
<path d="M5490 2590 c-92 -31 -142 -100 -142 -196 -1 -53 20 -104 56 -141 19
-19 149 -100 266 -166 19 -11 132 -77 250 -147 518 -307 529 -313 586 -316
143 -8 250 127 208 265 -16 53 -51 92 -124 135 -54 33 -205 122 -590 348 -107
64 -229 135 -270 160 -125 74 -165 83 -240 58z"/>
<path d="M1380 2590 c-14 -4 -62 -30 -108 -59 -46 -28 -85 -51 -87 -51 -14 0
-810 -477 -842 -505 -102 -89 -88 -245 29 -322 35 -24 52 -28 107 -28 66 0 86
9 211 85 8 5 49 29 90 53 41 24 143 84 225 132 83 49 159 94 170 100 97 52
413 247 426 261 47 54 66 151 41 215 -17 42 -64 91 -107 110 -41 19 -111 23
-155 9z"/>
<path d="M2296 2180 c-21 -11 -45 -25 -54 -32 -13 -11 -67 -89 -97 -140 -5
-10 -48 -79 -95 -155 -47 -75 -93 -150 -103 -167 -10 -17 -43 -69 -73 -116
-29 -47 -66 -107 -80 -134 -93 -176 74 -363 258 -289 23 9 53 28 65 42 33 37
423 662 450 721 43 94 8 204 -82 260 -49 30 -137 35 -189 10z"/>
<path d="M4552 2186 c-46 -16 -96 -59 -115 -99 -37 -78 -27 -152 36 -250 21
-32 37 -60 37 -63 0 -2 5 -10 11 -17 6 -7 79 -124 164 -262 84 -137 168 -268
186 -289 125 -145 358 -63 360 127 1 33 -6 67 -16 88 -20 38 -397 649 -427
692 -48 68 -156 101 -236 73z"/>
<path d="M3411 1944 c-51 -26 -95 -78 -110 -132 -5 -18 -9 -332 -8 -709 l2
-678 25 -45 c16 -28 43 -55 73 -74 100 -62 224 -31 284 71 l28 48 0 695 0 695
-28 47 c-55 94 -170 129 -266 82z"/>
</g>
</svg>
